<mxfile host="app.diagrams.net" modified="2024-07-11T11:01:26.470Z" agent="Mozilla/5.0 (Windows NT 10.0; Win64; x64) AppleWebKit/537.36 (KHTML, like Gecko) Chrome/126.0.0.0 Safari/537.36" version="24.6.4" etag="V9coXDmxpUd5bfO4Qgxr" type="github">
  <diagram name="페이지-1" id="mYAiMUL6yxC3d7TQmhim">
    <mxGraphModel>
      <root>
        <mxCell id="0" />
        <mxCell id="1" parent="0" />
      </root>
    </mxGraphModel>
  </diagram>
</mxfile>
